<svg id="Layer_1" data-name="Layer 1" xmlns="http://www.w3.org/2000/svg" viewBox="0 0 88 87"><defs><style>.cls-1{fill:#2d556b;}</style></defs><path class="cls-1" d="M43.51,5C19.68,5,4.81,22.59,4.81,44c0,21.55,14.57,39,38.85,39s39-17.45,39-39C82.66,22.59,67.33,5,43.51,5ZM68.18,44.18c-1.53,8.11-12,28.15-20,26.62a1.43,1.43,0,0,1-.67-.19,10.76,10.76,0,0,0-7.34,0,1.94,1.94,0,0,1-.67.19c-8.11,1.53-18.61-18.51-20.14-26.62A14.88,14.88,0,0,1,31.25,26.81,15.19,15.19,0,0,1,40,27.86a7.89,7.89,0,0,0,2.49.7h0l.43.05,0-.05h0l1.11-2.05A11.46,11.46,0,0,1,36,23.28a11.94,11.94,0,0,1-3.15-9.54,12.35,12.35,0,0,1,9.55,3.15,11.36,11.36,0,0,1,3.14,7l5.25-9.73a1,1,0,0,1,1.34-.38,1,1,0,0,1,.38,1.33L45.31,28.56h0l0,.06a1.83,1.83,0,0,0,.25-.06h.12l.06,0A9.67,9.67,0,0,0,47.38,28a14.48,14.48,0,0,1,8.78-1.05A14.92,14.92,0,0,1,68.18,44.18Z"/></svg>